<svg width="112" height="37" viewBox="0 0 112 37" fill="none" xmlns="http://www.w3.org/2000/svg">
<path d="M8.72036 5.18713C8.72036 6.23784 8.45741 7.15723 7.79997 7.8139C7.01097 8.6019 6.09057 8.99593 4.90716 8.99593C3.72374 8.99593 2.80327 8.6019 2.01435 7.8139C1.22543 7.02584 0.830933 6.10652 0.830933 4.9245C0.830933 3.74247 1.22543 2.82316 2.01435 2.03509C2.80327 1.24709 3.72374 0.853058 4.90716 0.853058C5.43313 0.853058 5.9591 0.984377 6.48499 1.24709C7.01097 1.50973 7.40547 1.77245 7.66841 2.1664L7.01097 2.82308C6.485 2.1664 5.82755 1.90377 4.90716 1.90377C4.11816 1.90377 3.32924 2.1664 2.80327 2.82308C2.14582 3.34843 1.88288 4.1365 1.88288 5.05582C1.88288 5.9752 2.14582 6.7632 2.80327 7.28855C3.46071 7.8139 4.11816 8.20786 4.90716 8.20786C5.82755 8.20786 6.48499 7.94522 7.14251 7.28855C7.53694 6.89452 7.79997 6.36916 7.79997 5.71249H4.90716V4.79318H8.72036C8.72036 4.79318 8.72036 4.9245 8.72036 5.18713Z" fill="black" stroke="#0288D1" stroke-width="0.210944" stroke-miterlimit="10"/>
<path d="M14.7703 1.90377H11.22V4.39914H14.5073V5.31853H11.22V7.8139H14.7703V8.73322H10.1681V0.853058H14.7703V1.90377Z" fill="black" stroke="#0288D1" stroke-width="0.210944" stroke-miterlimit="10"/>
<path d="M19.109 8.73322H18.0568V1.77245H15.8214V0.853058H21.3438V1.77245H19.109V8.73322Z" fill="black" stroke="#0288D1" stroke-width="0.210944" stroke-miterlimit="10"/>
<path d="M25.1586 8.73322V0.853058H26.2099V8.73322H25.1586Z" fill="black" stroke="#0288D1" stroke-width="0.210944" stroke-miterlimit="10"/>
<path d="M30.6794 8.73322H29.6281V1.77245H27.3926V0.853058H32.7836V1.77245H30.5481V8.73322H30.6794Z" fill="black" stroke="#0288D1" stroke-width="0.210944" stroke-miterlimit="10"/>
<path d="M43.1716 7.8139C42.3829 8.6019 41.4621 8.99593 40.2787 8.99593C39.0953 8.99593 38.1753 8.6019 37.3858 7.8139C36.5971 7.02584 36.2024 6.10652 36.2024 4.9245C36.2024 3.74247 36.5971 2.82316 37.3858 2.03509C38.1753 1.24709 39.0953 0.853058 40.2787 0.853058C41.4621 0.853058 42.3829 1.24709 43.1716 2.03509C43.9603 2.82316 44.355 3.74247 44.355 4.9245C44.355 5.9752 43.9603 7.02584 43.1716 7.8139ZM38.1753 7.15723C38.7013 7.68259 39.49 8.07654 40.2787 8.07654C41.0681 8.07654 41.8568 7.81391 42.3829 7.15723C42.9089 6.63188 43.3029 5.84388 43.3029 4.9245C43.3029 4.00511 43.0403 3.21711 42.3829 2.69176C41.8568 2.1664 41.0681 1.77245 40.2787 1.77245C39.49 1.77245 38.7013 2.03509 38.1753 2.69176C37.6492 3.21711 37.2545 4.00511 37.2545 4.9245C37.2545 5.71249 37.5179 6.50056 38.1753 7.15723Z" fill="black" stroke="#0288D1" stroke-width="0.210944" stroke-miterlimit="10"/>
<path d="M45.8022 8.73322V0.853058H46.9857L50.7986 7.02584V5.44985V0.853058H51.8507V8.73322H50.7986L46.7223 2.2978V3.87379V8.73322H45.8022Z" fill="black" stroke="#0288D1" stroke-width="0.210944" stroke-miterlimit="10"/>
<path d="M35.9384 20.2906C32.7828 20.2906 30.2847 22.6547 30.2847 25.9381C30.2847 29.0902 32.7828 31.5856 35.9384 31.5856C39.0939 31.5856 41.5928 29.2215 41.5928 25.9381C41.5928 22.6547 39.0939 20.2906 35.9384 20.2906ZM35.9384 29.2215C34.2289 29.2215 32.7829 27.7768 32.7829 25.8068C32.7829 23.8367 34.2289 22.392 35.9384 22.392C37.6478 22.392 39.0939 23.7054 39.0939 25.8068C39.0939 27.9082 37.6478 29.2215 35.9384 29.2215ZM23.7095 20.2906C20.5539 20.2906 18.0557 22.6547 18.0557 25.9381C18.0557 29.0902 20.5539 31.5856 23.7095 31.5856C26.8658 31.5856 29.3639 29.2215 29.3639 25.9381C29.3639 22.6547 26.8658 20.2906 23.7095 20.2906ZM23.7095 29.2215C22.0008 29.2215 20.5539 27.7768 20.5539 25.8068C20.5539 23.8367 22.0008 22.392 23.7095 22.392C25.4189 22.392 26.8658 23.7054 26.8658 25.8068C26.8658 27.9082 25.4189 29.2215 23.7095 29.2215ZM9.11434 21.998V24.3621H14.7684C14.6369 25.6755 14.111 26.7261 13.4535 27.3828C12.6646 28.1708 11.3496 29.0902 9.11434 29.0902C5.56408 29.0902 2.93422 26.3321 2.93422 22.7861C2.93422 19.24 5.69556 16.4819 9.11434 16.4819C10.9552 16.4819 12.4016 17.2699 13.4535 18.1893L15.1629 16.4819C13.7165 15.1686 11.8756 14.1179 9.24581 14.1179C4.51214 14.1179 0.435913 18.058 0.435913 22.7861C0.435913 27.5141 4.51214 31.4542 9.24581 31.4542C11.8756 31.4542 13.7165 30.6662 15.2944 28.9589C16.8723 27.3828 17.3982 25.1501 17.3982 23.4428C17.3982 22.9174 17.3982 22.392 17.2667 21.998H9.11434ZM68.8114 23.8367C68.2854 22.5234 66.9699 20.2906 64.0778 20.2906C61.1849 20.2906 58.818 22.5234 58.818 25.9381C58.818 29.0902 61.1849 31.5856 64.3404 31.5856C66.8386 31.5856 68.4167 30.0096 68.9428 29.0902L67.102 27.7768C66.4446 28.6961 65.6552 29.3528 64.3404 29.3528C63.0257 29.3528 62.2362 28.8275 61.5788 27.6455L69.0741 24.4934L68.8114 23.8367ZM61.1849 25.6755C61.1849 23.5741 62.8943 22.392 64.0778 22.392C64.9978 22.392 65.9185 22.9174 66.1812 23.5741L61.1849 25.6755ZM55.0044 31.0602H57.5025V14.6432H55.0044V31.0602ZM51.0602 21.4727C50.402 20.816 49.3507 20.1593 48.0352 20.1593C45.2744 20.1593 42.6442 22.6547 42.6442 25.8068C42.6442 28.9589 45.1431 31.3229 48.0352 31.3229C49.3507 31.3229 50.402 30.6662 50.9281 30.0096H51.0602V30.7976C51.0602 32.8989 49.8768 34.0809 48.0352 34.0809C46.5891 34.0809 45.537 33.0303 45.2744 32.1109L43.1702 33.0303C43.8276 34.475 45.4057 36.3137 48.1673 36.3137C51.0602 36.3137 53.427 34.6063 53.427 30.5349V20.5534H51.0602V21.4727ZM48.1673 29.2215C46.4578 29.2215 45.011 27.7768 45.011 25.8068C45.011 23.8367 46.4578 22.392 48.1673 22.392C49.8768 22.392 51.1915 23.8367 51.1915 25.8068C51.1915 27.7768 49.8768 29.2215 48.1673 29.2215ZM80.2509 14.6432H74.3338V31.0602H76.832V24.8874H80.2509C83.0117 24.8874 85.6419 22.9174 85.6419 19.7654C85.6419 16.6132 83.0117 14.6432 80.2509 14.6432ZM80.3822 22.6547H76.832V17.0073H80.3822C82.223 17.0073 83.2751 18.5833 83.2751 19.7654C83.1438 21.0787 82.0917 22.6547 80.3822 22.6547ZM95.504 20.2906C93.6625 20.2906 91.8217 21.0787 91.1643 22.7861L93.3998 23.7054C93.9258 22.7861 94.7145 22.5234 95.6353 22.5234C96.9501 22.5234 98.1335 23.3114 98.2648 24.6248V24.7561C97.8708 24.4934 96.8187 24.0994 95.7666 24.0994C93.3998 24.0994 91.033 25.4128 91.033 27.7768C91.033 30.0096 93.0051 31.4542 95.1093 31.4542C96.8187 31.4542 97.6074 30.6662 98.2648 29.8783H98.3961V31.1916H100.763V24.8874C100.5 21.8667 98.2648 20.2906 95.504 20.2906ZM95.2406 29.2215C94.4519 29.2215 93.2685 28.8275 93.2685 27.7768C93.2685 26.4635 94.7145 26.0695 95.898 26.0695C96.9501 26.0695 97.4761 26.3322 98.1335 26.5948C97.8708 28.1709 96.5553 29.2215 95.2406 29.2215ZM109.047 20.5534L106.286 27.6455H106.155L103.262 20.5534H100.632L104.971 30.5349L102.472 36.051H104.971L111.677 20.5534H109.047ZM86.9567 31.0602H89.4548V14.6432H86.9567V31.0602Z" fill="black"/>
</svg>
