<svg xmlns="http://www.w3.org/2000/svg" width="120" height="120" viewBox="0 0 120 120" fill="none">
  <path d="M75.0272 60.3813H71.541L70.1561 56.3928H62.9325L61.4859 60.3813H57.9997L64.8125 41.0225H68.2349L75.0272 60.3813ZM68.8921 52.8149L66.5443 46.1413L64.1828 52.8149H68.8921Z" fill="#1C7A7C"/>
  <path d="M42.8808 60.3144H39.3718V58.3929C38.998 58.9109 38.5293 59.3518 37.9914 59.6916C37.145 60.1721 36.1875 60.4165 35.2169 60.3998C33.5529 60.4048 31.9507 59.7621 30.7427 58.605C29.9966 57.8573 29.4055 56.9668 29.0038 55.9854C28.6021 55.004 28.3979 53.9515 28.4032 52.8894C28.4085 51.8273 28.6232 50.777 29.0347 49.7998C29.4462 48.8226 30.0463 47.9381 30.7998 47.198C31.445 46.6163 32.1927 46.1624 33.0038 45.8601C33.6887 45.6187 34.4055 45.4826 35.1303 45.4564C35.8241 45.3999 36.5221 45.4293 37.2089 45.544C38.1882 45.6698 39.1274 46.015 39.9581 46.5543C41.0837 47.3828 41.9426 48.5288 42.4269 49.8485C42.5808 50.2889 42.693 50.7431 42.7622 51.205C42.8185 51.5806 42.8467 51.96 42.8466 52.3399C42.858 55.1242 42.858 57.5371 42.8808 60.3144ZM32.8419 55.6178C33.1598 56.057 33.5665 56.4227 34.035 56.6905C34.5368 56.9649 35.1007 57.1023 35.671 57.0895C36.1728 57.0957 36.6699 56.9902 37.1268 56.7805C37.5838 56.5708 37.9896 56.262 38.3154 55.8761C39.0163 55.0443 39.4013 53.9874 39.4013 52.8946C39.4013 51.8019 39.0163 50.7449 38.3154 49.9131C37.9722 49.5086 37.5424 49.1884 37.0586 48.9767C36.5748 48.7651 36.0498 48.6675 35.5232 48.6915C34.9965 48.7155 34.4823 48.8604 34.0193 49.1153C33.5563 49.3701 33.1567 49.7281 32.8509 50.1622C32.5401 50.5721 32.3038 51.0344 32.1528 51.5278C32.0205 51.9698 31.9544 52.4293 31.9566 52.8911C31.9435 53.5212 32.0649 54.1468 32.3126 54.7251C32.4488 55.045 32.6251 55.3458 32.8373 55.6202L32.8419 55.6178Z" fill="#1C7A7C"/>
  <path d="M76.946 52.4128C76.9443 52.0199 76.9709 51.6274 77.0258 51.2385C77.0788 50.8475 77.1643 50.4617 77.2813 50.0851C77.4718 49.4973 77.7479 48.9415 78.1004 48.4359C78.5278 47.7021 79.1223 47.082 79.8344 46.6273C81.2935 45.8046 82.9601 45.4354 84.6257 45.5662C85.3627 45.5737 86.0941 45.6975 86.7933 45.9329C87.6067 46.2306 88.3552 46.685 88.9973 47.2709C89.7509 48.0109 90.3509 48.8954 90.7624 49.8727C91.1739 50.8499 91.3886 51.9002 91.394 52.9623C91.3993 54.0244 91.195 55.077 90.7933 56.0584C90.3916 57.0398 89.8004 57.9304 89.0543 58.6781C87.8461 59.8349 86.2441 60.4776 84.5801 60.4728C83.6095 60.4895 82.652 60.2451 81.8056 59.7646C81.2716 59.4238 80.8071 58.9829 80.4367 58.4657V66.595H76.9117C76.9322 58.8972 76.9505 53.3032 76.946 52.4128ZM87.4938 54.7956C87.7406 54.217 87.862 53.5917 87.8497 52.9617C87.8505 52.5001 87.7844 52.0407 87.6535 51.5984C87.5012 51.1051 87.264 50.6429 86.953 50.2328C86.6472 49.7991 86.2477 49.4414 85.7849 49.1869C85.3222 48.9323 84.8082 48.7876 84.2819 48.7636C83.7556 48.7396 83.2309 48.8369 82.7473 49.0483C82.2637 49.2597 81.834 49.5795 81.4908 49.9836C80.7929 50.8168 80.41 51.8734 80.41 52.9653C80.41 54.0571 80.7929 55.1135 81.4908 55.9468C81.8166 56.3327 82.2225 56.6414 82.6795 56.8511C83.1365 57.0608 83.6335 57.1663 84.1353 57.1601C84.7063 57.1722 85.2705 57.0348 85.7734 56.7611C86.2416 56.4927 86.6477 56.1261 86.9644 55.6861C87.1792 55.4131 87.3578 55.113 87.496 54.7934L87.4938 54.7956Z" fill="#1C7A7C"/>
  <path d="M93.5586 52.4127C93.568 52.0197 93.6007 51.6275 93.6566 51.2385C93.703 50.8486 93.7794 50.463 93.8849 50.0851C94.069 49.4946 94.3456 48.9378 94.704 48.4358C95.1322 47.7027 95.7265 47.0828 96.438 46.6273C97.8971 45.8047 99.5637 45.4355 101.229 45.5661C101.967 45.5738 102.699 45.6975 103.399 45.9329C104.213 46.2301 104.961 46.6845 105.603 47.2709C106.357 48.0109 106.957 48.8954 107.368 49.8725C107.78 50.8496 107.994 51.8998 108 52.9618C108.005 54.0238 107.802 55.0763 107.4 56.0578C106.999 57.0392 106.408 57.93 105.662 58.678C104.454 59.8345 102.852 60.4771 101.188 60.4727C100.218 60.4895 99.2602 60.245 98.4138 59.7645C97.8797 59.4239 97.4151 58.9829 97.0449 58.4657V66.595H93.5357C93.5335 63.813 93.5449 55.1901 93.5586 52.4127ZM104.106 54.7956C104.353 54.217 104.475 53.5917 104.462 52.9617C104.463 52.5 104.397 52.0407 104.266 51.5984C104.114 51.1055 103.878 50.6434 103.568 50.2328C103.262 49.797 102.862 49.4374 102.398 49.1815C101.934 48.9256 101.418 48.7801 100.89 48.7561C100.362 48.7321 99.8357 48.8302 99.3509 49.0429C98.866 49.2556 98.4355 49.5773 98.0921 49.9836C97.3942 50.8168 97.0112 51.8734 97.0112 52.9652C97.0112 54.0571 97.3942 55.1135 98.0921 55.9467C98.418 56.3326 98.8237 56.6414 99.2807 56.851C99.7377 57.0607 100.235 57.1662 100.736 57.1601C101.307 57.1724 101.872 57.0349 102.375 56.7611C102.843 56.4924 103.25 56.126 103.568 55.6861C103.785 55.4131 103.965 55.113 104.106 54.7933V54.7956Z" fill="#1C7A7C"/>
  <path d="M27.2329 59.2139C25.4857 59.9414 23.6209 60.3371 21.7319 60.3811C19.4479 60.4944 17.2045 59.74 15.4427 58.2661C13.6809 56.7921 12.528 54.7053 12.2107 52.4157C11.9408 51.1096 11.9301 49.7624 12.1792 48.452C12.4283 47.1417 12.9323 45.8943 13.6619 44.7825C14.1537 44.0979 14.7408 43.4887 15.405 42.9739C17.2808 41.5998 19.5673 40.9205 21.8802 41.0501C23.8704 41.0737 25.8262 41.5783 27.5842 42.5218L25.5946 45.1908C25.1423 44.9991 24.6753 44.8449 24.1983 44.7295C23.5173 44.5697 22.821 44.4861 22.122 44.4803C20.6517 44.4667 19.2243 44.9799 18.0927 45.929C17.3456 46.714 16.8065 47.6769 16.5249 48.7284C16.2434 49.78 16.2285 50.8863 16.4819 51.9452C16.612 53.3686 17.2849 54.6851 18.358 55.6159C19.431 56.5467 20.8202 57.0188 22.2316 56.9324C23.4015 56.9614 24.5652 56.7527 25.654 56.3189L27.2329 59.2139Z" fill="#1C7A7C"/>
  <path d="M48.3967 55.6181C48.3564 55.8355 48.3659 56.0593 48.4244 56.2724C48.483 56.4855 48.589 56.6823 48.7344 56.8476C48.9712 57.0052 49.2473 57.0916 49.5307 57.0968C49.7655 57.1113 50.001 57.1113 50.2358 57.0968C50.5392 57.0968 50.7855 57.0968 50.9407 57.0968V60.3839C50.0124 60.4309 49.0823 60.4225 48.155 60.3586C47.6736 60.3248 47.2015 60.2086 46.7586 60.0149C46.583 59.9326 46.4163 59.8321 46.2612 59.715C46.0916 59.5799 45.9384 59.4251 45.8049 59.2536C45.5253 58.8996 45.3155 58.4947 45.1866 58.0609C45.031 57.5515 44.9541 57.0208 44.9584 56.4877V41.0183H48.3967V55.6181Z" fill="#1C7A7C"/>
  <path d="M56.292 55.6159C56.292 55.6989 56.2053 56.5086 56.6502 56.8293C56.7907 56.9183 56.945 56.983 57.1065 57.0207C57.2977 57.0715 57.4956 57.0917 57.693 57.0807H59.3859C59.3646 58.1788 59.3426 59.2775 59.3198 60.377C57.7774 60.4047 56.5818 60.361 55.8974 60.3079C55.4686 60.281 55.0482 60.1762 54.6562 59.9987C54.4795 59.9162 54.312 59.815 54.1565 59.6966C53.9872 59.5612 53.834 59.4064 53.7002 59.2352C53.4205 58.8813 53.2107 58.4765 53.0818 58.0426C52.9262 57.5332 52.8491 57.0025 52.8536 56.4694V41H56.292V55.6159Z" fill="#1C7A7C"/>
  <path d="M17.4374 72.4284H15.3758V79.4695H13.5747V72.4284H12.1875V71.571L13.5747 71.0475V70.4633C13.5747 69.7501 13.6871 69.1835 13.9119 68.7637C14.1418 68.3439 14.4689 68.0429 14.8929 67.8608C15.3221 67.6737 15.8331 67.5801 16.4258 67.5801C16.8141 67.5801 17.1692 67.613 17.4911 67.6787C17.813 67.7394 18.0838 67.8102 18.3035 67.8912L17.8359 69.2417C17.6622 69.1861 17.4681 69.1355 17.2535 69.09C17.0389 69.0394 16.809 69.0141 16.5637 69.0141C16.155 69.0141 15.8535 69.1406 15.6593 69.3935C15.4703 69.6464 15.3758 70.0156 15.3758 70.5012V71.0703H17.4374V72.4284Z" fill="#1C7A7C"/>
  <path d="M26.7735 75.2509C26.7735 75.949 26.6815 76.5686 26.4976 77.1098C26.3136 77.6511 26.0454 78.1088 25.6928 78.4832C25.3403 78.8524 24.9162 79.1357 24.4206 79.3329C23.925 79.5252 23.3655 79.6213 22.7421 79.6213C22.1597 79.6213 21.6257 79.5252 21.1403 79.3329C20.655 79.1357 20.2334 78.8524 19.8758 78.4832C19.5232 78.1088 19.2499 77.6511 19.0557 77.1098C18.8616 76.5686 18.7645 75.949 18.7645 75.2509C18.7645 74.3253 18.9254 73.5412 19.2473 72.8988C19.5743 72.2514 20.0393 71.7582 20.6422 71.4193C21.2451 71.0804 21.963 70.9109 22.7958 70.9109C23.5775 70.9109 24.2673 71.0804 24.8651 71.4193C25.4629 71.7582 25.9304 72.2514 26.2676 72.8988C26.6049 73.5463 26.7735 74.3303 26.7735 75.2509ZM20.6192 75.2509C20.6192 75.863 20.6933 76.3865 20.8414 76.8215C20.9947 77.2565 21.2298 77.5904 21.5465 77.8231C21.8633 78.0507 22.2721 78.1645 22.7728 78.1645C23.2735 78.1645 23.6823 78.0507 23.9991 77.8231C24.3158 77.5904 24.5483 77.2565 24.6965 76.8215C24.8447 76.3865 24.9188 75.863 24.9188 75.2509C24.9188 74.6389 24.8447 74.1204 24.6965 73.6955C24.5483 73.2656 24.3158 72.9393 23.9991 72.7167C23.6823 72.4891 23.271 72.3753 22.7651 72.3753C22.0192 72.3753 21.475 72.6232 21.1327 73.1189C20.7904 73.6146 20.6192 74.3253 20.6192 75.2509Z" fill="#1C7A7C"/>
  <path d="M33.5191 70.9109C33.6621 70.9109 33.818 70.9185 33.9866 70.9337C34.1552 70.9489 34.3008 70.9691 34.4234 70.9944L34.2548 72.6636C34.1475 72.6333 34.0147 72.6105 33.8563 72.5953C33.703 72.5802 33.565 72.5726 33.4424 72.5726C33.1205 72.5726 32.814 72.6257 32.5227 72.7319C32.2315 72.8331 31.9735 72.9899 31.7486 73.2023C31.5238 73.4097 31.3476 73.6702 31.2198 73.9838C31.0921 74.2974 31.0282 74.6616 31.0282 75.0764V79.4695H29.2195V71.0703H30.6297L30.8749 72.5498H30.9592C31.1278 72.2514 31.3373 71.9782 31.5877 71.7304C31.8381 71.4825 32.1242 71.2853 32.4461 71.1386C32.7731 70.9868 33.1307 70.9109 33.5191 70.9109Z" fill="#1C7A7C"/>
  <path d="M42.6263 67.6635V70.5088C42.6263 70.8376 42.6161 71.1613 42.5957 71.48C42.5804 71.7936 42.565 72.0389 42.5497 72.216H42.6263C42.8563 71.8518 43.1756 71.5458 43.5844 71.2979C43.9982 71.045 44.527 70.9185 45.1708 70.9185C46.1774 70.9185 46.9872 71.2853 47.6004 72.0187C48.2135 72.7471 48.52 73.827 48.52 75.2585C48.52 76.2095 48.3795 77.0087 48.0985 77.6561C47.8175 78.3036 47.4215 78.7942 46.9106 79.1281C46.4048 79.4569 45.8095 79.6213 45.1248 79.6213C44.4811 79.6213 43.9599 79.5049 43.5614 79.2722C43.1679 79.0345 42.8588 78.7588 42.634 78.4452H42.5037L42.1742 79.4695H40.8253V67.6635H42.6263ZM44.6957 72.3677C44.1847 72.3677 43.7785 72.4689 43.4771 72.6712C43.1807 72.8735 42.9661 73.177 42.8333 73.5817C42.7004 73.9813 42.6315 74.4897 42.6263 75.1068V75.2661C42.6263 76.2019 42.7745 76.9176 43.0709 77.4133C43.3723 77.909 43.919 78.1569 44.711 78.1569C45.3394 78.1569 45.8223 77.9065 46.1595 77.4057C46.4967 76.8999 46.6653 76.1766 46.6653 75.2358C46.6653 74.2848 46.4967 73.5691 46.1595 73.0885C45.8274 72.608 45.3394 72.3677 44.6957 72.3677Z" fill="#1C7A7C"/>
  <path d="M58.3773 71.0703V79.4695H56.9594L56.7141 78.339H56.6145C56.4357 78.6273 56.2083 78.8676 55.9324 79.0598C55.6565 79.247 55.3499 79.3861 55.0127 79.4771C54.6755 79.5732 54.3204 79.6213 53.9474 79.6213C53.3087 79.6213 52.762 79.515 52.3073 79.3026C51.8577 79.0851 51.5128 78.7512 51.2726 78.3011C51.0325 77.8509 50.9124 77.2692 50.9124 76.556V71.0703H52.7211V76.2221C52.7211 76.8746 52.854 77.3628 53.1197 77.6865C53.3905 78.0102 53.8094 78.1721 54.3766 78.1721C54.9233 78.1721 55.3576 78.0608 55.6795 77.8382C56.0014 77.6157 56.2287 77.2869 56.3616 76.8519C56.4995 76.4169 56.5685 75.8832 56.5685 75.2509V71.0703H58.3773Z" fill="#1C7A7C"/>
  <path d="M67.0389 77.0719C67.0389 77.6233 66.9035 78.0886 66.6327 78.468C66.3619 78.8474 65.9659 79.1357 65.4447 79.3329C64.9287 79.5252 64.2951 79.6213 63.544 79.6213C62.9513 79.6213 62.4404 79.5783 62.0112 79.4923C61.5871 79.4113 61.186 79.2849 60.8079 79.1129V77.5727C61.2116 77.7598 61.6638 77.9217 62.1645 78.0583C62.6703 78.1948 63.1481 78.2631 63.5977 78.2631C64.1904 78.2631 64.617 78.1721 64.8776 77.99C65.1382 77.8028 65.2685 77.555 65.2685 77.2464C65.2685 77.0643 65.2148 76.9025 65.1075 76.7608C65.0053 76.6141 64.8112 76.4649 64.525 76.3132C64.244 76.1564 63.8302 75.9692 63.2835 75.7517C62.747 75.5392 62.2948 75.3268 61.9269 75.1144C61.559 74.9019 61.2806 74.6465 61.0915 74.348C60.9025 74.0445 60.8079 73.6576 60.8079 73.1872C60.8079 72.4436 61.1043 71.8796 61.697 71.4952C62.2948 71.1057 63.0842 70.9109 64.0652 70.9109C64.5863 70.9109 65.0769 70.9641 65.5367 71.0703C66.0017 71.1714 66.4564 71.3207 66.9009 71.5179L66.3338 72.8609C65.9506 72.694 65.5648 72.5574 65.1765 72.4512C64.7933 72.3399 64.4024 72.2843 64.0039 72.2843C63.5389 72.2843 63.1838 72.3551 62.9386 72.4967C62.6984 72.6383 62.5784 72.8407 62.5784 73.1037C62.5784 73.301 62.6371 73.4679 62.7546 73.6045C62.8721 73.741 63.074 73.8776 63.3601 74.0142C63.6513 74.1508 64.055 74.3202 64.571 74.5225C65.0768 74.7148 65.5137 74.9171 65.8816 75.1295C66.2546 75.3369 66.5407 75.5924 66.74 75.8959C66.9392 76.1994 67.0389 76.5914 67.0389 77.0719Z" fill="#1C7A7C"/>
  <path d="M71.1633 71.0703V79.4695H69.3623V71.0703H71.1633ZM70.2743 67.8532C70.5502 67.8532 70.7878 67.9266 70.987 68.0733C71.1914 68.2199 71.2936 68.4729 71.2936 68.832C71.2936 69.1861 71.1914 69.439 70.987 69.5907C70.7878 69.7374 70.5502 69.8108 70.2743 69.8108C69.9882 69.8108 69.7455 69.7374 69.5462 69.5907C69.352 69.439 69.255 69.1861 69.255 68.832C69.255 68.4729 69.352 68.2199 69.5462 68.0733C69.7455 67.9266 69.9882 67.8532 70.2743 67.8532Z" fill="#1C7A7C"/>
  <path d="M87.8581 70.9109C88.6143 70.9109 89.2632 71.0652 89.8048 71.3738C90.3464 71.6823 90.7628 72.1199 91.054 72.6864C91.3453 73.2529 91.4909 73.9307 91.4909 74.7198V75.6758H85.8271C85.8475 76.4902 86.0672 77.1174 86.4862 77.5575C86.9103 77.9976 87.503 78.2176 88.2643 78.2176C88.8059 78.2176 89.2913 78.167 89.7205 78.0659C90.1548 77.9596 90.6018 77.8053 91.0617 77.603V79.0522C90.6376 79.2495 90.2059 79.3936 89.7665 79.4847C89.327 79.5757 88.8008 79.6213 88.1876 79.6213C87.3548 79.6213 86.6216 79.4619 85.988 79.1433C85.3596 78.8195 84.8665 78.339 84.5089 77.7017C84.1563 77.0643 83.98 76.2727 83.98 75.3268C83.98 74.386 84.141 73.5868 84.4629 72.9292C84.7848 72.2716 85.237 71.7708 85.8194 71.4269C86.4019 71.0829 87.0815 70.9109 87.8581 70.9109ZM87.8581 72.2539C87.2909 72.2539 86.8311 72.436 86.4786 72.8002C86.1311 73.1644 85.9267 73.698 85.8654 74.4011H89.7281C89.723 73.9813 89.6515 73.6095 89.5135 73.2858C89.3807 72.9621 89.1763 72.7092 88.9004 72.5271C88.6296 72.345 88.2822 72.2539 87.8581 72.2539Z" fill="#1C7A7C"/>
  <path d="M99.6007 77.0719C99.6007 77.6233 99.4653 78.0886 99.1945 78.468C98.9237 78.8474 98.5277 79.1357 98.0065 79.3329C97.4905 79.5252 96.8569 79.6213 96.1058 79.6213C95.5131 79.6213 95.0022 79.5783 94.573 79.4923C94.1489 79.4113 93.7478 79.2849 93.3698 79.1129V77.5727C93.7734 77.7598 94.2256 77.9217 94.7263 78.0583C95.2321 78.1948 95.7099 78.2631 96.1595 78.2631C96.7522 78.2631 97.1788 78.1721 97.4394 77.99C97.7 77.8028 97.8303 77.555 97.8303 77.2464C97.8303 77.0643 97.7766 76.9025 97.6693 76.7608C97.5671 76.6141 97.373 76.4649 97.0869 76.3132C96.8058 76.1564 96.392 75.9692 95.8453 75.7517C95.3088 75.5392 94.8566 75.3268 94.4887 75.1144C94.1208 74.9019 93.8424 74.6465 93.6533 74.348C93.4643 74.0445 93.3698 73.6576 93.3698 73.1872C93.3698 72.4436 93.6661 71.8796 94.2588 71.4952C94.8566 71.1057 95.646 70.9109 96.627 70.9109C97.1482 70.9109 97.6387 70.9641 98.0985 71.0703C98.5635 71.1714 99.0182 71.3207 99.4627 71.5179L98.8956 72.8609C98.5124 72.694 98.1266 72.5574 97.7383 72.4512C97.3551 72.3399 96.9642 72.2843 96.5657 72.2843C96.1007 72.2843 95.7456 72.3551 95.5004 72.4967C95.2602 72.6383 95.1402 72.8407 95.1402 73.1037C95.1402 73.301 95.1989 73.4679 95.3164 73.6045C95.4339 73.741 95.6358 73.8776 95.9219 74.0142C96.2131 74.1508 96.6168 74.3202 97.1328 74.5225C97.6387 74.7148 98.0755 74.9171 98.4434 75.1295C98.8164 75.3369 99.1025 75.5924 99.3018 75.8959C99.501 76.1994 99.6007 76.5914 99.6007 77.0719Z" fill="#1C7A7C"/>
  <path d="M107.626 77.0719C107.626 77.6233 107.491 78.0886 107.22 78.468C106.949 78.8474 106.553 79.1357 106.032 79.3329C105.516 79.5252 104.882 79.6213 104.131 79.6213C103.539 79.6213 103.028 79.5783 102.599 79.4923C102.174 79.4113 101.773 79.2849 101.395 79.1129V77.5727C101.799 77.7598 102.251 77.9217 102.752 78.0583C103.258 78.1948 103.735 78.2631 104.185 78.2631C104.778 78.2631 105.204 78.1721 105.465 77.99C105.725 77.8028 105.856 77.555 105.856 77.2464C105.856 77.0643 105.802 76.9025 105.695 76.7608C105.593 76.6141 105.398 76.4649 105.112 76.3132C104.831 76.1564 104.417 75.9692 103.871 75.7517C103.334 75.5392 102.882 75.3268 102.514 75.1144C102.146 74.9019 101.868 74.6465 101.679 74.348C101.49 74.0445 101.395 73.6576 101.395 73.1872C101.395 72.4436 101.692 71.8796 102.284 71.4952C102.882 71.1057 103.671 70.9109 104.652 70.9109C105.174 70.9109 105.664 70.9641 106.124 71.0703C106.589 71.1714 107.044 71.3207 107.488 71.5179L106.921 72.8609C106.538 72.694 106.152 72.5574 105.764 72.4512C105.381 72.3399 104.99 72.2843 104.591 72.2843C104.126 72.2843 103.771 72.3551 103.526 72.4967C103.286 72.6383 103.166 72.8407 103.166 73.1037C103.166 73.301 103.224 73.4679 103.342 73.6045C103.459 73.741 103.661 73.8776 103.947 74.0142C104.239 74.1508 104.642 74.3202 105.158 74.5225C105.664 74.7148 106.101 74.9171 106.469 75.1295C106.842 75.3369 107.128 75.5924 107.327 75.8959C107.527 76.1994 107.626 76.5914 107.626 77.0719Z" fill="#1C7A7C"/>
  <path fill-rule="evenodd" clip-rule="evenodd" d="M81.6077 78.5304V74.9083C81.7619 74.7337 81.881 74.5248 81.965 74.2818C82.0487 74.0389 82.0503 73.7693 81.9698 73.4731L81.5474 71.9241C81.487 71.7191 81.3898 71.5538 81.2557 71.4284C81.1216 71.3032 80.964 71.2407 80.783 71.2407H75.1907C75.0096 71.2407 74.8505 71.3052 74.7131 71.4343C74.5755 71.5634 74.4799 71.7266 74.4263 71.9241L74.0038 73.4731C73.9234 73.7693 73.9251 74.0427 74.0091 74.2932C74.0927 74.5438 74.2117 74.7488 74.3659 74.9083V78.5304C74.3659 78.781 74.4448 78.9956 74.6025 79.1742C74.7599 79.3525 74.9493 79.4416 75.1706 79.4416H75.8199V76.0004H80.2645V79.4416H80.8031C81.0244 79.4416 81.2138 79.3525 81.3716 79.1742C81.529 78.9956 81.6077 78.781 81.6077 78.5304ZM79.2843 74.219C79.1904 74.3596 79.053 74.4299 78.8719 74.4299C78.7378 74.4299 78.6238 74.3711 78.53 74.2536C78.4361 74.1358 78.3891 73.9971 78.3891 73.8376V72.1519H79.1737L79.3949 73.7465C79.4151 73.9212 79.3782 74.0786 79.2843 74.219ZM77.4389 74.2536C77.3415 74.3711 77.2157 74.4299 77.0615 74.4299C76.9073 74.4299 76.7816 74.3616 76.6845 74.2249C76.5871 74.0882 76.5519 73.9288 76.5787 73.7465L76.8 72.1519H77.5845V73.8376C77.5845 73.9971 77.5359 74.1358 77.4389 74.2536ZM75.5878 74.2818C75.4974 74.3806 75.3918 74.4299 75.2711 74.4299C75.0767 74.4299 74.9375 74.3426 74.8535 74.1679C74.7699 73.9933 74.7481 73.83 74.7884 73.6782L75.1907 72.1519H75.9752L75.7539 73.906C75.7338 74.0578 75.6784 74.1831 75.5878 74.2818ZM81.1249 74.1679C81.0378 74.3426 80.8969 74.4299 80.7025 74.4299C80.5818 74.4299 80.4763 74.3806 80.3859 74.2818C80.2952 74.1831 80.2398 74.0578 80.2197 73.906L79.9984 72.1519H80.7628L81.1853 73.6782C81.2322 73.83 81.2121 73.9933 81.1249 74.1679Z" fill="#1C7A7C"/>
  <path d="M74.4866 70H75.82V72H74.4866V70Z" fill="#1C7A7C"/>
</svg>