<svg width="248" height="83" viewBox="0 0 248 83" fill="none" xmlns="http://www.w3.org/2000/svg">
<path d="M18.5727 72.0936C16.2252 72.0936 14.0637 71.7214 12.0883 70.977C10.1415 70.2041 8.43804 69.1305 6.97796 67.7563C5.51788 66.3534 4.38703 64.7073 3.58541 62.8177C2.7838 60.9282 2.38299 58.8669 2.38299 56.6339C2.38299 54.4008 2.7838 52.3395 3.58541 50.45C4.38703 48.5605 5.51788 46.9286 6.97796 45.5544C8.46667 44.1516 10.1987 43.078 12.1741 42.3336C14.1496 41.5606 16.311 41.1741 18.6586 41.1741C21.2066 41.1741 23.497 41.5893 25.5296 42.4195C27.5909 43.2498 29.323 44.4665 30.7258 46.0697L27.2044 49.5052C26.0306 48.3314 24.7566 47.4725 23.3824 46.9286C22.0369 46.356 20.5482 46.0697 18.9163 46.0697C17.3417 46.0697 15.8816 46.3274 14.536 46.8427C13.1905 47.358 12.031 48.0881 11.0576 49.0328C10.0842 49.9776 9.32555 51.0941 8.78159 52.3824C8.26627 53.6707 8.00861 55.0879 8.00861 56.6339C8.00861 58.1512 8.26627 59.554 8.78159 60.8423C9.32555 62.1306 10.0842 63.2615 11.0576 64.2349C12.031 65.1796 13.1762 65.9097 14.4931 66.425C15.81 66.9403 17.2701 67.198 18.8734 67.198C20.3621 67.198 21.7935 66.969 23.1677 66.5109C24.5705 66.0242 25.9018 65.2226 27.1615 64.1061L30.3393 68.2716C28.7647 69.5313 26.9324 70.4903 24.8425 71.1488C22.7812 71.7787 20.6913 72.0936 18.5727 72.0936ZM25.0572 67.5415V56.2903H30.3393V68.2716L25.0572 67.5415ZM45.7759 71.9647C43.4283 71.9647 41.3384 71.4637 39.5061 70.4617C37.6738 69.4311 36.2281 68.0282 35.1688 66.2532C34.1095 64.4782 33.5799 62.4599 33.5799 60.1982C33.5799 57.9079 34.1095 55.8895 35.1688 54.1431C36.2281 52.3681 37.6738 50.9796 39.5061 49.9776C41.3384 48.9756 43.4283 48.4746 45.7759 48.4746C48.1521 48.4746 50.2563 48.9756 52.0886 49.9776C53.9495 50.9796 55.3952 52.3538 56.4259 54.1002C57.4852 55.8466 58.0148 57.8792 58.0148 60.1982C58.0148 62.4599 57.4852 64.4782 56.4259 66.2532C55.3952 68.0282 53.9495 69.4311 52.0886 70.4617C50.2563 71.4637 48.1521 71.9647 45.7759 71.9647ZM45.7759 67.3698C47.0928 67.3698 48.2666 67.0835 49.2972 66.5109C50.3279 65.9383 51.1295 65.1081 51.7021 64.0202C52.3033 62.9323 52.6039 61.6583 52.6039 60.1982C52.6039 58.7095 52.3033 57.4355 51.7021 56.3762C51.1295 55.2883 50.3279 54.458 49.2972 53.8855C48.2666 53.3129 47.1071 53.0266 45.8188 53.0266C44.5019 53.0266 43.3281 53.3129 42.2974 53.8855C41.2954 54.458 40.4938 55.2883 39.8926 56.3762C39.2914 57.4355 38.9908 58.7095 38.9908 60.1982C38.9908 61.6583 39.2914 62.9323 39.8926 64.0202C40.4938 65.1081 41.2954 65.9383 42.2974 66.5109C43.3281 67.0835 44.4876 67.3698 45.7759 67.3698ZM71.7366 71.9647C69.3891 71.9647 67.2991 71.4637 65.4669 70.4617C63.6346 69.4311 62.1888 68.0282 61.1296 66.2532C60.0703 64.4782 59.5406 62.4599 59.5406 60.1982C59.5406 57.9079 60.0703 55.8895 61.1296 54.1431C62.1888 52.3681 63.6346 50.9796 65.4669 49.9776C67.2991 48.9756 69.3891 48.4746 71.7366 48.4746C74.1129 48.4746 76.2171 48.9756 78.0494 49.9776C79.9103 50.9796 81.356 52.3538 82.3867 54.1002C83.4459 55.8466 83.9756 57.8792 83.9756 60.1982C83.9756 62.4599 83.4459 64.4782 82.3867 66.2532C81.356 68.0282 79.9103 69.4311 78.0494 70.4617C76.2171 71.4637 74.1129 71.9647 71.7366 71.9647ZM71.7366 67.3698C73.0536 67.3698 74.2274 67.0835 75.258 66.5109C76.2887 65.9383 77.0903 65.1081 77.6629 64.0202C78.2641 62.9323 78.5647 61.6583 78.5647 60.1982C78.5647 58.7095 78.2641 57.4355 77.6629 56.3762C77.0903 55.2883 76.2887 54.458 75.258 53.8855C74.2274 53.3129 73.0679 53.0266 71.7796 53.0266C70.4627 53.0266 69.2889 53.3129 68.2582 53.8855C67.2562 54.458 66.4546 55.2883 65.8534 56.3762C65.2522 57.4355 64.9515 58.7095 64.9515 60.1982C64.9515 61.6583 65.2522 62.9323 65.8534 64.0202C66.4546 65.1081 67.2562 65.9383 68.2582 66.5109C69.2889 67.0835 70.4483 67.3698 71.7366 67.3698ZM97.7833 80.2958C95.6648 80.2958 93.5891 80.0095 91.5565 79.4369C89.5524 78.893 87.9063 78.0914 86.618 77.0321L89.0228 72.9954C90.0248 73.8256 91.2845 74.4841 92.8018 74.9708C94.3478 75.4861 95.9081 75.7438 97.4827 75.7438C100.002 75.7438 101.849 75.1569 103.022 73.9831C104.196 72.8379 104.783 71.1059 104.783 68.7869V64.7073L105.213 59.5111L105.041 54.3149V48.7322H110.151V68.1857C110.151 72.3369 109.092 75.3859 106.973 77.3327C104.855 79.3081 101.791 80.2958 97.7833 80.2958ZM97.0962 70.6335C94.9204 70.6335 92.945 70.1754 91.17 69.2593C89.4236 68.3145 88.0351 67.0119 87.0045 65.3514C86.0024 63.6909 85.5014 61.7442 85.5014 59.5111C85.5014 57.3066 86.0024 55.3742 87.0045 53.7137C88.0351 52.0532 89.4236 50.7649 91.17 49.8488C92.945 48.9326 94.9204 48.4746 97.0962 48.4746C99.043 48.4746 100.789 48.8611 102.335 49.634C103.881 50.407 105.112 51.6095 106.028 53.2413C106.973 54.8732 107.446 56.9631 107.446 59.5111C107.446 62.0591 106.973 64.1633 106.028 65.8238C105.112 67.4557 103.881 68.6724 102.335 69.474C100.789 70.247 99.043 70.6335 97.0962 70.6335ZM97.9121 66.0815C99.2577 66.0815 100.46 65.8095 101.519 65.2655C102.579 64.693 103.395 63.92 103.967 62.9466C104.568 61.9446 104.869 60.7994 104.869 59.5111C104.869 58.2228 104.568 57.0919 103.967 56.1185C103.395 55.1165 102.579 54.3578 101.519 53.8425C100.46 53.2986 99.2577 53.0266 97.9121 53.0266C96.5666 53.0266 95.3498 53.2986 94.2619 53.8425C93.2027 54.3578 92.3724 55.1165 91.7712 56.1185C91.1986 57.0919 90.9123 58.2228 90.9123 59.5111C90.9123 60.7994 91.1986 61.9446 91.7712 62.9466C92.3724 63.92 93.2027 64.693 94.2619 65.2655C95.3498 65.8095 96.5666 66.0815 97.9121 66.0815ZM115.491 71.6641V39.7999H120.858V71.6641H115.491ZM136.965 71.9647C134.417 71.9647 132.184 71.4637 130.266 70.4617C128.376 69.4311 126.902 68.0282 125.843 66.2532C124.812 64.4782 124.297 62.4599 124.297 60.1982C124.297 57.9079 124.798 55.8895 125.8 54.1431C126.83 52.3681 128.233 50.9796 130.008 49.9776C131.812 48.9756 133.859 48.4746 136.149 48.4746C138.382 48.4746 140.372 48.9613 142.118 49.9347C143.865 50.908 145.239 52.2822 146.241 54.0572C147.243 55.8322 147.744 57.9222 147.744 60.327C147.744 60.556 147.73 60.8137 147.701 61.1C147.701 61.3863 147.687 61.6583 147.658 61.9159H128.548V58.3516H144.824L142.719 59.4681C142.748 58.1512 142.476 56.9917 141.904 55.9897C141.331 54.9877 140.544 54.2004 139.542 53.6278C138.568 53.0552 137.437 52.7689 136.149 52.7689C134.832 52.7689 133.673 53.0552 132.671 53.6278C131.697 54.2004 130.924 55.002 130.352 56.0326C129.808 57.0347 129.536 58.2228 129.536 59.597V60.4558C129.536 61.83 129.851 63.0468 130.481 64.1061C131.11 65.1653 131.998 65.9813 133.143 66.5538C134.288 67.1264 135.605 67.4127 137.094 67.4127C138.382 67.4127 139.542 67.2123 140.572 66.8115C141.603 66.4107 142.519 65.7809 143.321 64.922L146.198 68.2286C145.167 69.4311 143.865 70.3615 142.29 71.02C140.744 71.6498 138.969 71.9647 136.965 71.9647ZM161.848 71.6641V41.6036H174.216C176.878 41.6036 179.154 42.033 181.044 42.8919C182.962 43.7508 184.437 44.9818 185.467 46.585C186.498 48.1883 187.013 50.0921 187.013 52.2966C187.013 54.501 186.498 56.4048 185.467 58.0081C184.437 59.6113 182.962 60.8423 181.044 61.7012C179.154 62.5601 176.878 62.9895 174.216 62.9895H164.94L167.431 60.37V71.6641H161.848ZM167.431 60.9712L164.94 58.2657H173.958C176.42 58.2657 178.267 57.7504 179.498 56.7197C180.758 55.6605 181.388 54.1861 181.388 52.2966C181.388 50.3784 180.758 48.904 179.498 47.8734C178.267 46.8427 176.42 46.3274 173.958 46.3274H164.94L167.431 43.579V60.9712ZM190.774 71.6641V39.7999H196.142V71.6641H190.774ZM215.599 71.6641V67.0262L215.298 66.0385V57.9222C215.298 56.3476 214.826 55.1308 213.881 54.272C212.936 53.3845 211.505 52.9407 209.586 52.9407C208.298 52.9407 207.024 53.1411 205.764 53.5419C204.533 53.9427 203.488 54.501 202.63 55.2167L200.525 51.3088C201.756 50.3641 203.216 49.6627 204.906 49.2046C206.623 48.7179 208.398 48.4746 210.231 48.4746C213.552 48.4746 216.114 49.2762 217.917 50.8794C219.75 52.454 220.666 54.9018 220.666 58.2228V71.6641H215.599ZM208.384 71.9647C206.666 71.9647 205.163 71.6785 203.875 71.1059C202.587 70.5047 201.585 69.6887 200.869 68.6581C200.182 67.5988 199.838 66.4107 199.838 65.0938C199.838 63.8055 200.139 62.646 200.74 61.6153C201.37 60.5847 202.386 59.7687 203.789 59.1675C205.192 58.5663 207.053 58.2657 209.372 58.2657H216.028V61.83H209.758C207.926 61.83 206.695 62.1306 206.065 62.7319C205.435 63.3044 205.12 64.0202 205.12 64.879C205.12 65.8524 205.507 66.6254 206.28 67.198C207.053 67.7706 208.126 68.0569 209.501 68.0569C210.817 68.0569 211.991 67.7563 213.022 67.1551C214.081 66.5538 214.84 65.6663 215.298 64.4925L216.2 67.7133C215.684 69.0589 214.754 70.1039 213.408 70.8482C212.091 71.5926 210.417 71.9647 208.384 71.9647ZM227.307 80.2958C226.191 80.2958 225.074 80.1097 223.958 79.7375C222.841 79.3654 221.911 78.85 221.166 78.1916L223.314 74.2408C223.858 74.7275 224.473 75.1139 225.16 75.4002C225.847 75.6865 226.549 75.8297 227.264 75.8297C228.238 75.8297 229.025 75.5863 229.626 75.0996C230.228 74.6129 230.786 73.797 231.301 72.6518L232.632 69.6458L233.062 69.0016L241.736 48.7322H246.89L236.154 73.5107C235.438 75.2285 234.636 76.5883 233.749 77.5904C232.89 78.5924 231.917 79.2938 230.829 79.6946C229.77 80.0954 228.596 80.2958 227.307 80.2958ZM232.031 72.4801L221.682 48.7322H227.264L235.681 68.5293L232.031 72.4801Z" fill="black"/>
<path d="M3.34347 24.6641V7.16414H10.4685C12.3351 7.16414 13.9685 7.53914 15.3685 8.28914C16.7851 9.02247 17.8851 10.0475 18.6685 11.3641C19.4518 12.6808 19.8435 14.1975 19.8435 15.9141C19.8435 17.6308 19.4518 19.1475 18.6685 20.4641C17.8851 21.7808 16.7851 22.8141 15.3685 23.5641C13.9685 24.2975 12.3351 24.6641 10.4685 24.6641H3.34347ZM5.19347 23.0641H10.3685C11.9185 23.0641 13.2601 22.7641 14.3935 22.1641C15.5435 21.5475 16.4351 20.7058 17.0685 19.6391C17.7018 18.5558 18.0185 17.3141 18.0185 15.9141C18.0185 14.4975 17.7018 13.2558 17.0685 12.1891C16.4351 11.1225 15.5435 10.2891 14.3935 9.68914C13.2601 9.07247 11.9185 8.76414 10.3685 8.76414H5.19347V23.0641ZM23.9978 24.6641V7.16414H25.8478V24.6641H23.9978ZM36.3667 24.8141C35.0667 24.8141 33.8167 24.6058 32.6167 24.1891C31.4334 23.7558 30.5167 23.2058 29.8667 22.5391L30.5917 21.1141C31.2084 21.7141 32.0334 22.2225 33.0667 22.6391C34.1167 23.0391 35.2167 23.2391 36.3667 23.2391C37.4667 23.2391 38.3584 23.1058 39.0417 22.8391C39.7417 22.5558 40.25 22.1808 40.5667 21.7141C40.9 21.2475 41.0667 20.7308 41.0667 20.1641C41.0667 19.4808 40.8667 18.9308 40.4667 18.5141C40.0834 18.0975 39.575 17.7725 38.9417 17.5391C38.3084 17.2891 37.6084 17.0725 36.8417 16.8891C36.075 16.7058 35.3084 16.5141 34.5417 16.3141C33.775 16.0975 33.0667 15.8141 32.4167 15.4641C31.7834 15.1141 31.2667 14.6558 30.8667 14.0891C30.4834 13.5058 30.2917 12.7475 30.2917 11.8141C30.2917 10.9475 30.5167 10.1558 30.9667 9.43914C31.4334 8.7058 32.1417 8.12247 33.0917 7.68914C34.0417 7.23914 35.2584 7.01414 36.7417 7.01414C37.725 7.01414 38.7 7.1558 39.6667 7.43914C40.6334 7.7058 41.4667 8.0808 42.1667 8.56414L41.5417 10.0391C40.7917 9.53914 39.9917 9.17247 39.1417 8.93914C38.3084 8.70581 37.5 8.58914 36.7167 8.58914C35.6667 8.58914 34.8 8.7308 34.1167 9.01414C33.4334 9.29747 32.925 9.6808 32.5917 10.1641C32.275 10.6308 32.1167 11.1641 32.1167 11.7641C32.1167 12.4475 32.3084 12.9975 32.6917 13.4141C33.0917 13.8308 33.6084 14.1558 34.2417 14.3891C34.8917 14.6225 35.6 14.8308 36.3667 15.0141C37.1334 15.1975 37.8917 15.3975 38.6417 15.6141C39.4084 15.8308 40.1084 16.1141 40.7417 16.4641C41.3917 16.7975 41.9084 17.2475 42.2917 17.8141C42.6917 18.3808 42.8917 19.1225 42.8917 20.0391C42.8917 20.8891 42.6584 21.6808 42.1917 22.4141C41.725 23.1308 41.0084 23.7141 40.0417 24.1641C39.0917 24.5975 37.8667 24.8141 36.3667 24.8141ZM46.9226 24.6641V7.16414H53.4726C54.9559 7.16414 56.2309 7.4058 57.2976 7.88914C58.3642 8.35581 59.1809 9.03914 59.7476 9.93914C60.3309 10.8225 60.6226 11.8975 60.6226 13.1641C60.6226 14.3975 60.3309 15.4641 59.7476 16.3641C59.1809 17.2475 58.3642 17.9308 57.2976 18.4141C56.2309 18.8975 54.9559 19.1391 53.4726 19.1391H47.9476L48.7726 18.2641V24.6641H46.9226ZM48.7726 18.4141L47.9476 17.5141H53.4226C55.1726 17.5141 56.4976 17.1391 57.3976 16.3891C58.3142 15.6225 58.7726 14.5475 58.7726 13.1641C58.7726 11.7641 58.3142 10.6808 57.3976 9.91414C56.4976 9.14747 55.1726 8.76414 53.4226 8.76414H47.9476L48.7726 7.88914V18.4141ZM72.5169 24.8141C71.2002 24.8141 69.9752 24.5975 68.8419 24.1641C67.7252 23.7141 66.7502 23.0891 65.9169 22.2891C65.1002 21.4725 64.4586 20.5308 63.9919 19.4641C63.5419 18.3808 63.3169 17.1975 63.3169 15.9141C63.3169 14.6308 63.5419 13.4558 63.9919 12.3891C64.4586 11.3058 65.1002 10.3641 65.9169 9.56414C66.7502 8.74747 67.7252 8.12247 68.8419 7.68914C69.9586 7.23914 71.1836 7.01414 72.5169 7.01414C73.8336 7.01414 75.0502 7.23914 76.1669 7.68914C77.2836 8.12247 78.2502 8.73914 79.0669 9.53914C79.9002 10.3391 80.5419 11.2808 80.9919 12.3641C81.4586 13.4475 81.6919 14.6308 81.6919 15.9141C81.6919 17.1975 81.4586 18.3808 80.9919 19.4641C80.5419 20.5475 79.9002 21.4891 79.0669 22.2891C78.2502 23.0891 77.2836 23.7141 76.1669 24.1641C75.0502 24.5975 73.8336 24.8141 72.5169 24.8141ZM72.5169 23.1641C73.5669 23.1641 74.5336 22.9891 75.4169 22.6391C76.3169 22.2725 77.0919 21.7641 77.7419 21.1141C78.4086 20.4475 78.9252 19.6808 79.2919 18.8141C79.6586 17.9308 79.8419 16.9641 79.8419 15.9141C79.8419 14.8641 79.6586 13.9058 79.2919 13.0391C78.9252 12.1558 78.4086 11.3891 77.7419 10.7391C77.0919 10.0725 76.3169 9.56414 75.4169 9.21414C74.5336 8.84747 73.5669 8.66414 72.5169 8.66414C71.4669 8.66414 70.4919 8.84747 69.5919 9.21414C68.6919 9.56414 67.9086 10.0725 67.2419 10.7391C66.5919 11.3891 66.0752 12.1558 65.6919 13.0391C65.3252 13.9058 65.1419 14.8641 65.1419 15.9141C65.1419 16.9475 65.3252 17.9058 65.6919 18.7891C66.0752 19.6725 66.5919 20.4475 67.2419 21.1141C67.9086 21.7641 68.6919 22.2725 69.5919 22.6391C70.4919 22.9891 71.4669 23.1641 72.5169 23.1641ZM85.8386 24.6641V7.16414H87.3636L99.4386 22.3641H98.6386V7.16414H100.464V24.6641H98.9386L86.8886 9.46414H87.6886V24.6641H85.8386ZM106.176 24.6641V7.16414H108.026V24.6641H106.176ZM113.719 24.6641V7.16414H121.269C123.219 7.16414 124.728 7.5558 125.794 8.33914C126.878 9.12247 127.419 10.2308 127.419 11.6641C127.419 12.6141 127.194 13.4141 126.744 14.0641C126.311 14.7141 125.711 15.2058 124.944 15.5391C124.194 15.8725 123.369 16.0391 122.469 16.0391L122.894 15.4391C124.011 15.4391 124.969 15.6141 125.769 15.9641C126.586 16.2975 127.219 16.8058 127.669 17.4891C128.119 18.1558 128.344 18.9891 128.344 19.9891C128.344 21.4725 127.794 22.6225 126.694 23.4391C125.611 24.2558 123.969 24.6641 121.769 24.6641H113.719ZM115.569 23.1391H121.744C123.278 23.1391 124.453 22.8808 125.269 22.3641C126.086 21.8308 126.494 20.9891 126.494 19.8391C126.494 18.7058 126.086 17.8808 125.269 17.3641C124.453 16.8308 123.278 16.5641 121.744 16.5641H115.369V15.0391H121.144C122.544 15.0391 123.628 14.7725 124.394 14.2391C125.178 13.7058 125.569 12.9141 125.569 11.8641C125.569 10.7975 125.178 10.0058 124.394 9.48914C123.628 8.9558 122.544 8.68914 121.144 8.68914H115.569V23.1391ZM132.567 24.6641V7.16414H134.417V23.0641H144.217V24.6641H132.567ZM148.939 14.9891H158.189V16.5641H148.939V14.9891ZM149.139 23.0641H159.664V24.6641H147.289V7.16414H159.289V8.76414H149.139V23.0641ZM172.205 14.9891H181.455V16.5641H172.205V14.9891ZM172.405 23.0641H182.93V24.6641H170.555V7.16414H182.555V8.76414H172.405V23.0641ZM187.279 24.6641V7.16414H188.804L200.879 22.3641H200.079V7.16414H201.904V24.6641H200.379L188.329 9.46414H189.129V24.6641H187.279Z" fill="black"/>
</svg>
