<svg width="81" height="163" viewBox="0 0 81 163" fill="none" xmlns="http://www.w3.org/2000/svg">
<path d="M65.4526 112.008C59.5255 116.074 58.5758 120.491 58.4209 121.723C57.4847 122.266 56.6092 122.75 55.8077 123.173C57.0604 121.121 58.2458 119.028 59.3437 116.889C61.1555 113.247 62.7315 109.485 64.0517 105.651C64.1998 105.227 64.3413 104.81 64.476 104.386C65.5065 101.234 66.9882 98.2344 68.9752 95.5591C69.1099 95.3803 69.2378 95.2015 69.3658 95.0227C85.9548 86.096 78.3439 67.8851 78.3439 67.8851C78.5931 71.9048 74.6462 74.9774 70.5916 82.3082C67.1364 88.5462 68.2949 92.9235 68.7192 94.089C67.8706 95.3803 67.0758 96.4994 66.3888 97.4398C66.6582 96.2676 66.9141 95.0889 67.1431 93.9102C67.9312 89.9435 68.3689 85.9106 68.571 81.8843L68.6384 80.3745C68.6653 79.8712 68.6855 79.3679 68.6721 78.8646V75.8383C68.6451 74.8318 68.5778 73.8252 68.5373 72.8186C68.5104 72.3153 68.5037 71.8121 68.4565 71.3088L68.3151 69.8055C68.2208 68.8056 68.2747 67.8057 68.4834 66.819L69.6689 61.0643C81.7654 46.7737 67.884 32.5825 67.884 32.5825C69.6217 36.2313 67.096 40.5092 66.0588 48.7935C65.1764 55.8461 67.8908 59.4949 68.7192 60.4286C68.3757 62.0974 68.0255 63.5609 67.7089 64.7462L67.5742 63.8125C67.453 62.8126 67.2172 61.8325 67.0354 60.8392L66.7458 59.3558C66.6515 58.8591 66.5572 58.3691 66.4224 57.8791C65.9308 55.9255 65.4795 53.9654 64.8464 52.0516L64.4019 50.6079L64.1796 49.8861L63.9237 49.1776L62.8932 46.3433C62.2398 44.6944 61.5596 43.0587 60.8254 41.4429C59.5188 38.5424 58.6971 35.4432 58.522 32.2712C58.4816 31.5362 58.4209 30.8143 58.3468 30.1058C64.8599 12.6498 46.9373 3.86882 46.9373 3.86882C49.82 6.73621 48.8973 11.5969 50.7562 19.7421C52.3323 26.6755 56.1377 29.2184 57.2288 29.821C57.579 32.1917 57.7609 34.1784 57.8619 35.569C57.835 35.5227 57.808 35.4697 57.7811 35.4167L57.0537 34.0923C56.8112 33.6486 56.535 33.2314 56.2724 32.801L54.6896 30.2316L52.9856 27.7417C52.696 27.3311 52.4198 26.9073 52.1235 26.5033L51.2075 25.2981C50.2645 24.0134 49.2744 22.7684 48.2507 21.5566C46.816 19.7752 44.8561 17.1926 43.1521 15.3318C42.3506 14.4576 41.6501 13.4974 41.1382 12.4379C33.6822 -3.01821 15.47 1.33254 15.47 1.33254C19.5584 1.59081 22.1649 5.82236 29.0618 10.6896C34.5107 14.5371 38.8347 14.3053 40.404 14.0404C40.5926 14.1 40.8216 14.1729 41.0102 14.2325L43.0915 16.3781C45.8125 19.3249 48.4191 22.3777 50.7023 25.6623L51.5779 26.8742C51.8608 27.2847 52.1234 27.7086 52.3996 28.1257L54.0228 30.6355L54.7098 31.8209C52.898 30.3111 51.0728 28.9932 49.2677 27.8476C39.4477 11.9545 21.2893 20.2454 21.2893 20.2454C25.3642 19.8216 28.6577 23.5565 36.2888 27.2119C42.7816 30.3243 47.173 28.9866 48.3382 28.5231C50.938 30.0197 53.1001 31.4898 54.3528 32.3705C55.1409 32.9268 55.8077 33.6486 56.2454 34.4963C56.2454 34.4963 56.2454 34.5029 56.2522 34.5095L56.9325 35.8339C58.8183 39.3437 60.3338 43.0256 61.6943 46.7472L62.6372 49.5683L62.873 50.2702L63.075 50.9854L63.4724 52.4158C64.0449 54.3097 64.4423 56.2566 64.8733 58.1837C64.9878 58.6671 65.0754 59.1505 65.1562 59.6406V59.667C63.9371 57.8128 62.6507 56.1242 61.3306 54.5945C56.6698 36.5756 36.8411 39.2774 36.8411 39.2774C40.8621 40.0456 42.9029 44.5685 49.1128 50.257C54.4 55.0978 58.9934 55.0911 60.2462 54.9786C61.6674 56.5017 62.8326 57.8658 63.6947 58.9187C64.8935 60.3822 65.6749 62.1371 65.85 64.0045C65.85 64.0178 65.85 64.0244 65.85 64.031L66.1935 66.9713L66.281 67.7063L66.3282 68.448L66.4292 69.9248L66.5302 71.4015C66.5639 71.8915 66.5572 72.3882 66.5706 72.8782C66.5841 73.8649 66.6245 74.8516 66.6245 75.8317L66.5504 78.7852C66.5504 79.2752 66.5168 79.7719 66.4763 80.2619L66.3753 81.7387C66.2137 83.8644 65.9779 85.9901 65.6681 88.1025C65.2438 86.3278 64.7387 84.6392 64.1796 83.0565C66.3753 64.5873 46.8632 60.1571 46.8632 60.1571C50.3453 62.2828 50.6013 67.2229 54.3393 74.7192C57.5184 81.0963 61.8155 82.6989 63.0279 83.0366C63.4926 84.1889 63.89 85.2484 64.2268 86.1887C65.0552 88.4999 65.2303 90.9898 64.6915 93.3804C64.6915 93.3936 64.6915 93.4069 64.6848 93.4135C63.8294 97.2477 62.7719 101.049 61.3845 104.731C60.0037 108.413 58.394 112.008 56.5485 115.479C56.003 116.485 55.4305 117.478 54.8445 118.465C55.1813 116.379 55.3699 114.373 55.4507 112.452C64.3749 96.0624 47.8735 84.9041 47.8735 84.9041C50.3184 88.1357 48.7221 92.8241 49.4024 101.148C49.9816 108.227 53.3829 111.267 54.3865 112.015C54.3865 112.287 54.3865 112.552 54.3865 112.81C54.3596 117.313 52.9586 121.723 50.3049 125.392C50.2914 125.412 50.278 125.432 50.2645 125.445C47.9678 128.643 45.3882 131.63 42.6739 134.471C41.9801 135.166 41.3201 135.901 40.5927 136.563L38.4441 138.59C38.4104 138.563 38.4171 138.57 38.3835 138.543C39.0368 137.398 39.6295 136.265 40.1616 135.146C54.8512 123.438 44.0344 106.863 44.0344 106.863C45.0177 110.777 41.6905 114.492 39.0435 122.419C36.7872 129.166 38.727 133.266 39.3533 134.338C38.9223 135.358 38.5047 136.292 38.1141 137.126C37.1577 139.166 35.7567 140.987 33.9584 142.364C33.9517 142.371 33.9382 142.378 33.9314 142.384C30.8332 144.808 27.607 147.079 24.1922 149.053C22.2053 150.205 20.178 151.284 18.117 152.298C18.9791 151.43 19.7739 150.549 20.508 149.669C34.578 143.292 29.3986 127.988 29.3986 127.988C29.3717 131.286 25.9703 133.577 22.239 139.345C19.0599 144.252 19.7537 147.894 20.0365 148.867C19.5785 149.463 19.1408 150.02 18.7366 150.523C17.3896 152.178 15.6586 153.496 13.6784 154.324C13.6717 154.324 13.6582 154.331 13.6515 154.337C10.0077 155.834 6.27635 157.105 2.47765 158.138L2.43724 158.152H2.4238C1.3933 158.443 0.632214 159.344 0.612008 160.397C0.571596 162.198 2.26214 163.343 3.84494 162.867C7.83223 161.668 11.7454 160.231 15.5374 158.556C19.3293 156.86 22.9799 154.887 26.5024 152.715C28.6241 151.417 30.6716 150.006 32.6585 148.516C35.3593 146.497 38.599 145.291 41.9801 145.007C59.64 151.675 68.8404 134.186 68.8404 134.186C65.8836 136.974 60.9534 136.001 52.6421 137.696C45.57 139.139 42.9231 142.841 42.29 143.907C40.5927 144.126 39.0839 144.265 37.8514 144.351C38.9762 143.378 40.0606 142.371 41.1584 141.364L43.3474 139.192C44.0883 138.477 44.755 137.696 45.4555 136.954C48.2102 133.915 50.8101 130.743 53.1068 127.359C53.154 127.292 53.2011 127.22 53.2482 127.153C54.373 125.498 55.9154 124.16 57.7205 123.26C58.0168 123.114 58.3064 122.962 58.5961 122.809C77.502 122.114 78.9703 102.479 78.9703 102.479C77.3673 106.188 72.4371 107.194 65.4795 111.969L65.4526 112.008Z" fill="#1F325B"/>
</svg>
