<svg width="81" height="163" viewBox="0 0 81 163" fill="none" xmlns="http://www.w3.org/2000/svg">
<path d="M15.5478 112.002C21.4748 116.068 22.4245 120.485 22.5794 121.717C23.5156 122.26 24.3912 122.744 25.1927 123.167C23.94 121.115 22.7545 119.022 21.6567 116.883C19.8449 113.241 18.2688 109.479 16.9487 105.645C16.8006 105.221 16.6591 104.804 16.5244 104.38C15.4939 101.228 14.0121 98.2284 12.0252 95.5531C11.8905 95.3743 11.7626 95.1955 11.6346 95.0167C-4.95441 86.09 2.65646 67.8791 2.65646 67.8791C2.40725 71.8988 6.35413 74.9714 10.4088 82.3022C13.864 88.5402 12.7055 92.9175 12.2812 94.083C13.1298 95.3743 13.9246 96.4934 14.6116 97.4338C14.3422 96.2616 14.0862 95.0829 13.8572 93.9042C13.0692 89.9375 12.6314 85.9046 12.4294 81.8783L12.362 80.3685C12.3351 79.8652 12.3216 79.3619 12.3283 78.8586V75.8323C12.3553 74.8257 12.4226 73.8192 12.463 72.8126C12.49 72.3093 12.4967 71.8061 12.5439 71.3028L12.6853 69.7995C12.7796 68.7996 12.7257 67.7996 12.5237 66.813L11.3382 61.0583C-0.75833 46.7677 13.1231 32.5764 13.1231 32.5764C11.3854 36.2252 13.9111 40.5032 14.9484 48.7875C15.8307 55.84 13.1164 59.4889 12.2879 60.4226C12.6314 62.0914 12.9817 63.5549 13.2982 64.7402L13.4329 63.8065C13.5541 62.8066 13.7899 61.8265 13.9717 60.8331L14.2614 59.3498C14.3556 58.8531 14.4499 58.3631 14.5846 57.873C15.0763 55.9195 15.5276 53.9594 16.1607 52.0456L16.6052 50.6019L16.8275 49.8801L17.0834 49.1715L18.1139 46.3373C18.7673 44.6884 19.4475 43.0527 20.1817 41.4369C21.4883 38.5364 22.31 35.4372 22.4851 32.2652C22.5255 31.5301 22.5862 30.8083 22.6603 30.0998C16.1472 12.6305 34.0698 3.84956 34.0698 3.84956C31.1871 6.71695 32.1031 11.5776 30.2509 19.7229C28.6749 26.6562 24.8762 29.1991 23.7783 29.8018C23.4281 32.1725 23.2462 34.1591 23.1452 35.5498C23.1721 35.5034 23.1991 35.4505 23.226 35.3975L23.9534 34.0731C24.1959 33.6294 24.472 33.2122 24.7347 32.7817L26.3175 30.2123L28.0215 27.7224C28.3112 27.3118 28.5873 26.888 28.8769 26.4841L29.7929 25.2788C30.7359 23.9941 31.7259 22.7492 32.7564 21.5373C34.1911 19.756 36.151 17.1733 37.8551 15.3125C38.6566 14.4384 39.357 13.4782 39.8689 12.4186C47.3181 -3.03747 65.5303 1.30666 65.5303 1.30666C61.442 1.56492 58.8355 5.79648 51.9385 10.6638C46.4897 14.5112 42.1656 14.2794 40.5963 14.0146C40.4077 14.0742 40.1787 14.147 39.9901 14.2066L37.9022 16.3522C35.1811 19.299 32.5746 22.3518 30.2913 25.6364L29.4157 26.8483C29.1329 27.2589 28.8702 27.6827 28.594 28.0999L26.9708 30.6097L26.2838 31.795C28.0956 30.2852 29.9209 28.9674 31.7259 27.8217C41.546 11.9286 59.7043 20.2195 59.7043 20.2195C55.6295 19.7957 52.3359 23.5306 44.7048 27.186C38.212 30.2984 33.8206 28.9608 32.6554 28.4972C30.0556 29.9938 27.8936 31.4639 26.6408 32.3447C25.8528 32.9009 25.186 33.6227 24.7482 34.4704C24.7482 34.4704 24.7482 34.477 24.7415 34.4836L24.0612 35.8081C22.1753 39.3178 20.6599 42.9997 19.2993 46.7214L18.3564 49.5424L18.1207 50.2443L17.9186 50.9595L17.5212 52.3899C16.9487 54.2838 16.5514 56.2308 16.1203 58.1578C16.0058 58.6412 15.9182 59.1246 15.8374 59.6147V59.6412C17.0565 57.787 18.3429 56.0983 19.6631 54.5686C24.3239 36.5497 44.1593 39.2516 44.1593 39.2516C40.1383 40.0197 38.0975 44.5427 31.8876 50.2311C26.6004 55.0719 22.0069 55.0653 20.7542 54.9527C19.333 56.4758 18.1678 57.8399 17.3057 58.8929C16.1136 60.3564 15.3255 62.1112 15.1504 63.9787C15.1504 63.9919 15.1504 63.9985 15.1504 64.0052L14.8069 66.9454L14.7194 67.6805L14.6722 68.4221L14.5712 69.8989L14.4701 71.3756C14.4365 71.8657 14.4432 72.3623 14.4297 72.8523C14.4163 73.8391 14.3759 74.8257 14.3759 75.8058L14.4499 78.7593C14.4499 79.2493 14.4836 79.746 14.524 80.236L14.6251 81.7128C14.7867 83.8385 15.0157 85.9642 15.3323 88.0767C15.7566 86.3019 16.255 84.6133 16.8208 83.0306C14.6251 64.5614 34.1372 60.1312 34.1372 60.1312C30.655 62.2569 30.3991 67.197 26.661 74.6933C23.482 81.0704 19.1848 82.673 17.9725 83.0107C17.5078 84.163 17.1104 85.2225 16.7736 86.1629C15.9452 88.474 15.7701 90.9639 16.3089 93.3545C16.3089 93.3678 16.3089 93.381 16.3156 93.3876C17.171 97.2218 18.2284 101.023 19.6159 104.705C20.9966 108.387 22.6064 111.983 24.4518 115.453C24.9974 116.459 25.5699 117.453 26.1559 118.439C25.8191 116.353 25.6305 114.347 25.5497 112.426C16.6254 96.0365 33.1269 84.8782 33.1269 84.8782C30.682 88.1098 32.2782 92.7983 31.598 101.122C31.0187 108.201 27.6174 111.241 26.6139 111.989C26.6139 112.261 26.6139 112.526 26.6139 112.784C26.6408 117.287 28.0417 121.697 30.6955 125.366C30.7089 125.386 30.7224 125.406 30.7359 125.419C33.0326 128.617 35.6122 131.604 38.3265 134.445C39.0203 135.14 39.6736 135.875 40.4077 136.538L42.5563 138.564C42.59 138.537 42.5765 138.544 42.6169 138.518C41.9636 137.372 41.3709 136.24 40.8388 135.12C26.1491 123.412 36.966 106.837 36.966 106.837C35.9826 110.751 39.3099 114.466 41.9568 122.393C44.2132 129.141 42.2734 133.24 41.647 134.312C42.0781 135.332 42.5024 136.266 42.8863 137.1C43.8427 139.14 45.2437 140.961 47.042 142.339C47.0487 142.345 47.0622 142.352 47.0689 142.358C50.1672 144.782 53.3934 147.054 56.8081 149.027C58.7951 150.179 60.8224 151.259 62.8834 152.272C62.0213 151.404 61.2265 150.524 60.4924 149.643C46.4223 143.266 51.6018 127.962 51.6018 127.962C51.6287 131.26 55.03 133.551 58.7614 139.319C61.9404 144.226 61.2467 147.868 60.9638 148.841C61.4218 149.437 61.8596 149.994 62.2637 150.497C63.6108 152.153 65.3418 153.47 67.3287 154.298C67.3354 154.298 67.3489 154.305 67.3556 154.311C70.9994 155.808 74.7307 157.079 78.5294 158.113L78.5699 158.126H78.5833C79.6138 158.417 80.3749 159.318 80.3951 160.371C80.4355 162.172 78.745 163.318 77.1622 162.841C73.1749 161.642 69.2617 160.205 65.463 158.53C61.671 156.834 58.0205 154.861 54.4979 152.689C52.3763 151.391 50.3288 149.981 48.3419 148.491C45.641 146.471 42.4014 145.266 39.0203 144.981C21.3603 151.649 12.1599 134.16 12.1599 134.16C15.1167 136.948 20.047 135.975 28.3583 137.67C35.4304 139.114 38.0773 142.815 38.7104 143.882C40.4077 144.1 41.9164 144.239 43.149 144.325C42.0242 143.352 40.9398 142.345 39.842 141.339L37.653 139.167C36.9121 138.451 36.2453 137.67 35.5449 136.928C32.7901 133.889 30.1903 130.717 27.8936 127.333C27.8464 127.267 27.7993 127.194 27.7521 127.127C26.6273 125.472 25.085 124.134 23.2799 123.234C22.9835 123.088 22.6939 122.936 22.4043 122.783C3.49837 122.088 2.03008 102.453 2.03008 102.453C3.63307 106.162 8.5633 107.168 15.5209 111.943L15.5478 112.002Z" fill="#1F325B"/>
</svg>
