<svg width="34" height="38" viewBox="0 0 34 38" fill="none" xmlns="http://www.w3.org/2000/svg">
<g clip-path="url(#clip0_115_2523)">
<path d="M24.1858 11.9941L17.5884 18.5833L0.577637 1.59154C1.19884 0.30662 2.83991 -0.314197 4.21117 0.476253L24.1858 11.9941Z" fill="#00FF7C"/>
<path d="M31.7228 20.823L24.1859 25.1698L17.5885 18.583L24.1859 11.9939L31.7228 16.3408C33.4509 17.3371 33.4509 19.827 31.7228 20.8234V20.823Z" fill="#FFD001"/>
<path d="M17.5884 18.5831L0.577596 35.5725C0.414778 35.2379 0.322632 34.8597 0.322632 34.4475V2.71875C0.322632 2.30656 0.414778 1.92596 0.577596 1.59137L17.5884 18.5835V18.5831Z" fill="#00D3FF"/>
<path d="M24.1858 25.1701L4.21117 36.6903C2.83991 37.4808 1.1965 36.8599 0.577637 35.5727L17.5884 18.5833L24.1858 25.1701Z" fill="#FF2132"/>
</g>
<defs>
<clipPath id="clip0_115_2523">
<rect width="32.6963" height="36.9152" fill="white" transform="translate(0.322876 0.125732)"/>
</clipPath>
</defs>
</svg>
