<svg width="98" height="31" viewBox="0 0 98 31" fill="none" xmlns="http://www.w3.org/2000/svg">
<g clip-path="url(#clip0_115_2520)">
<g opacity="0.99">
<path d="M56.3784 25.6646H53.2583L52.0188 22.238H45.5538L44.2591 25.6646H41.139L47.2363 9.03295H50.2993L56.3784 25.6646ZM50.8875 19.1641L48.7863 13.4306L46.6727 19.1641H50.8875Z" fill="#0288D1"/>
<path d="M27.6059 25.607H24.4654V23.9561C24.1308 24.4012 23.7114 24.7799 23.2299 25.0719C22.4724 25.4847 21.6154 25.6947 20.7468 25.6803C19.2575 25.6846 17.8236 25.1325 16.7424 24.1384C16.0747 23.496 15.5457 22.7309 15.1861 21.8878C14.8266 21.0446 14.6438 20.1404 14.6486 19.2279C14.6533 18.3155 14.8455 17.4131 15.2138 16.5735C15.5821 15.734 16.1191 14.9741 16.7935 14.3383C17.371 13.8385 18.0402 13.4485 18.7661 13.1888C19.379 12.9814 20.0206 12.8645 20.6693 12.842C21.2902 12.7935 21.915 12.8187 22.5296 12.9172C23.4061 13.0254 24.2466 13.3219 24.9901 13.7852C25.9975 14.497 26.7662 15.4815 27.1996 16.6154C27.3374 16.9938 27.4378 17.384 27.4997 17.7807C27.5501 18.1035 27.5754 18.4294 27.5753 18.7558C27.5855 21.1479 27.5855 23.2209 27.6059 25.607ZM18.6212 21.5719C18.9057 21.9492 19.2697 22.2635 19.689 22.4935C20.1381 22.7293 20.6428 22.8474 21.1532 22.8364C21.6024 22.8416 22.0472 22.751 22.4562 22.5708C22.8652 22.3907 23.2283 22.1254 23.5199 21.7939C24.1472 21.0793 24.4918 20.1712 24.4918 19.2324C24.4918 18.2936 24.1472 17.3855 23.5199 16.6709C23.2128 16.3234 22.8281 16.0482 22.3951 15.8664C21.9621 15.6846 21.4922 15.6007 21.0209 15.6213C20.5496 15.642 20.0893 15.7665 19.675 15.9854C19.2606 16.2043 18.903 16.5119 18.6293 16.8849C18.3511 17.237 18.1396 17.6342 18.0045 18.0581C17.8861 18.4378 17.8269 18.8327 17.8289 19.2294C17.8171 19.7707 17.9258 20.3082 18.1474 20.805C18.2694 21.0798 18.4272 21.3383 18.6171 21.574L18.6212 21.5719Z" fill="#0288D1"/>
<path d="M58.0955 18.8175C58.094 18.48 58.1178 18.1428 58.1669 17.8087C58.2144 17.4727 58.2909 17.1413 58.3956 16.8178C58.5661 16.3127 58.8132 15.8352 59.1287 15.4008C59.5112 14.7704 60.0433 14.2377 60.6806 13.8471C61.9865 13.1402 63.4781 12.823 64.9688 12.9354C65.6284 12.9419 66.2829 13.0482 66.9087 13.2505C67.6367 13.5062 68.3066 13.8966 68.8813 14.4C69.5557 15.0358 70.0928 15.7957 70.4611 16.6352C70.8294 17.4748 71.0215 18.3771 71.0263 19.2896C71.031 20.2021 70.8483 21.1064 70.4887 21.9496C70.1292 22.7927 69.6001 23.5578 68.9323 24.2002C67.851 25.1941 66.4172 25.7462 64.9279 25.7421C64.0593 25.7565 63.2023 25.5465 62.4448 25.1337C61.9669 24.8409 61.5511 24.4621 61.2197 24.0178V31.0019H58.0648C58.0832 24.3885 58.0996 19.5825 58.0955 18.8175ZM67.5357 20.8647C67.7566 20.3676 67.8652 19.8304 67.8542 19.2891C67.8549 18.8925 67.7957 18.4979 67.6786 18.1179C67.5423 17.6941 67.33 17.297 67.0517 16.9447C66.778 16.572 66.4204 16.2647 66.0063 16.046C65.5921 15.8273 65.1321 15.703 64.6611 15.6824C64.1901 15.6618 63.7204 15.7454 63.2876 15.927C62.8548 16.1086 62.4702 16.3834 62.163 16.7306C61.5384 17.4464 61.1958 18.3541 61.1958 19.2922C61.1958 20.2302 61.5384 21.1378 62.163 21.8537C62.4547 22.1852 62.8179 22.4505 63.2269 22.6306C63.6359 22.8108 64.0807 22.9014 64.5298 22.8961C65.0409 22.9065 65.5459 22.7884 65.9959 22.5533C66.415 22.3227 66.7784 22.0078 67.0619 21.6298C67.2541 21.3952 67.414 21.1373 67.5376 20.8627L67.5357 20.8647Z" fill="#0288D1"/>
<path d="M72.9607 18.8175C72.9692 18.4798 72.9984 18.1429 73.0485 17.8086C73.09 17.4737 73.1583 17.1424 73.2528 16.8177C73.4176 16.3104 73.6651 15.8321 73.9859 15.4008C74.3691 14.7709 74.901 14.2384 75.5378 13.847C76.8437 13.1403 78.3353 12.8231 79.826 12.9353C80.4862 12.9419 81.1414 13.0482 81.7679 13.2504C82.496 13.5058 83.166 13.8962 83.7405 14.3999C84.4148 15.0357 84.9518 15.7956 85.3201 16.6351C85.6884 17.4746 85.8806 18.3768 85.8856 19.2892C85.8905 20.2016 85.7081 21.1059 85.3489 21.9491C84.9897 22.7923 84.461 23.5575 83.7936 24.2002C82.7121 25.1937 81.2784 25.7458 79.7892 25.7421C78.9206 25.7564 78.0636 25.5465 77.3061 25.1336C76.8281 24.841 76.4123 24.4621 76.081 24.0178V31.0019H72.9403C72.9383 28.6118 72.9485 21.2036 72.9607 18.8175ZM82.4009 20.8646C82.6218 20.3675 82.7304 19.8303 82.7195 19.2891C82.72 18.8925 82.6609 18.4979 82.5439 18.1178C82.4076 17.6944 82.1962 17.2974 81.9191 16.9446C81.6453 16.5702 81.2871 16.2612 80.8718 16.0414C80.4565 15.8216 79.9951 15.6966 79.5225 15.676C79.0499 15.6553 78.5787 15.7396 78.1448 15.9224C77.7108 16.1051 77.3255 16.3815 77.0182 16.7305C76.3936 17.4464 76.0508 18.3541 76.0508 19.2921C76.0508 20.2302 76.3936 21.1378 77.0182 21.8536C77.3098 22.1852 77.673 22.4504 78.082 22.6306C78.491 22.8107 78.9358 22.9013 79.3849 22.8961C79.8959 22.9066 80.4011 22.7885 80.8511 22.5533C81.2706 22.3225 81.6346 22.0076 81.9191 21.6297C82.1129 21.3951 82.2748 21.1373 82.4009 20.8627V20.8646Z" fill="#0288D1"/>
<path d="M13.6019 24.662C12.0382 25.2871 10.3692 25.627 8.67856 25.6648C6.63442 25.7622 4.62662 25.114 3.04983 23.8477C1.47304 22.5814 0.441211 20.7886 0.157198 18.8215C-0.0843952 17.6994 -0.0939092 16.5419 0.129031 15.4162C0.351971 14.2904 0.803024 13.2188 1.45601 12.2635C1.8962 11.6754 2.42162 11.1521 3.01606 10.7098C4.69487 9.52922 6.7413 8.9456 8.8113 9.05696C10.5925 9.07725 12.3429 9.51079 13.9163 10.3214L12.1357 12.6143C11.7308 12.4496 11.3129 12.3172 10.886 12.2181C10.2765 12.0808 9.65329 12.009 9.02766 12.004C7.71184 11.9923 6.43429 12.4332 5.4215 13.2485C4.7529 13.923 4.27035 14.7502 4.01837 15.6536C3.76638 16.557 3.75311 17.5076 3.97985 18.4173C4.09634 19.6402 4.69852 20.7712 5.65893 21.5709C6.61933 22.3705 7.86264 22.7762 9.12575 22.702C10.1728 22.7268 11.2144 22.5476 12.1888 22.1748L13.6019 24.662Z" fill="#0288D1"/>
<path d="M32.5426 21.5716C32.5066 21.7584 32.515 21.9506 32.5674 22.1337C32.6198 22.3168 32.7147 22.4859 32.8449 22.6278C33.0567 22.7633 33.3039 22.8375 33.5575 22.842C33.7676 22.8544 33.9784 22.8544 34.1885 22.842C34.4601 22.842 34.6806 22.842 34.8194 22.842V25.6661C33.9886 25.7064 33.1562 25.6992 32.3263 25.6443C31.8955 25.6153 31.4729 25.5154 31.0765 25.349C30.9194 25.2783 30.7702 25.1919 30.6314 25.0914C30.4796 24.9753 30.3425 24.8423 30.2229 24.695C29.9728 24.3908 29.7849 24.043 29.6695 23.6703C29.5303 23.2326 29.4615 22.7767 29.4654 22.3187V9.02844H32.5426V21.5716Z" fill="#0288D1"/>
<path d="M39.6099 21.5702C39.6099 21.6416 39.5323 22.3372 39.9305 22.6127C40.0562 22.6892 40.1943 22.7448 40.3389 22.7772C40.51 22.8208 40.6871 22.8382 40.8637 22.8287H42.3789C42.3598 23.7721 42.3401 24.716 42.3197 25.6607C40.9393 25.6845 39.8693 25.6469 39.2567 25.6013C38.873 25.5782 38.4967 25.4882 38.1458 25.3357C37.9877 25.2648 37.8378 25.1778 37.6986 25.0761C37.5471 24.9598 37.41 24.8268 37.2902 24.6797C37.04 24.3756 36.8521 24.0279 36.7368 23.6552C36.5975 23.2175 36.5286 22.7616 36.5326 22.3035V9.01329H39.6099V21.5702Z" fill="#0288D1"/>
<path d="M91.1617 -6.10352e-05C87.3879 -6.10352e-05 84.3262 2.95413 84.3262 6.59916C84.3109 8.11182 84.852 9.583 85.8581 10.7635C86.8641 11.9441 88.2732 12.7614 89.8468 13.0772C93.5175 13.9225 91.1617 17.2222 91.1617 17.2222C92.1285 16.5101 98.0003 13.1105 98.0003 6.59916C98.0003 3.11169 95.1611 -6.10352e-05 91.1617 -6.10352e-05ZM94.726 3.8813C94.9475 3.89059 95.1568 3.97932 95.3108 4.12922C95.4649 4.27913 95.552 4.47882 95.5543 4.68726C95.5552 4.89682 95.4686 5.09835 95.3131 5.2485C95.1576 5.39865 94.9456 5.48544 94.7228 5.49021C94.5002 5.48468 94.2887 5.39765 94.1334 5.24766C93.9781 5.09768 93.8913 4.89659 93.8913 4.68726C93.8937 4.47782 93.9817 4.27728 94.1371 4.12721C94.2925 3.97714 94.5034 3.88908 94.726 3.8813ZM86.7723 4.68121C86.7764 4.4751 86.8653 4.27851 87.0204 4.13274C87.1754 3.98697 87.3845 3.90336 87.6038 3.89948C87.8249 3.90025 88.0369 3.98258 88.1942 4.12876C88.3515 4.27494 88.4415 4.4733 88.4449 4.68121C88.4466 4.78586 88.4264 4.8898 88.3853 4.98709C88.3443 5.08439 88.2833 5.17313 88.2058 5.24826C88.1283 5.32338 88.0358 5.38343 87.9336 5.42494C87.8314 5.46646 87.7215 5.48863 87.6102 5.49021C87.3867 5.48243 87.175 5.39405 87.019 5.24341C86.863 5.09278 86.7746 4.89146 86.7723 4.68121ZM91.2616 11.0865C88.8896 11.0865 86.9689 10.1563 86.9689 6.94154H95.5543C95.5543 10.1563 93.6335 11.0865 91.2616 11.0865Z" fill="#0288D1"/>
</g>
</g>
<defs>
<clipPath id="clip0_115_2520">
<rect width="98" height="31" fill="white"/>
</clipPath>
</defs>
</svg>
